<svg width="16" height="23" viewBox="0 0 16 23" fill="none" xmlns="http://www.w3.org/2000/svg">
<path d="M9.5 0.937683C9.5 0.937683 10.24 3.58768 10.24 5.73768C10.24 7.79768 8.89 9.46768 6.83 9.46768C4.76 9.46768 3.2 7.79768 3.2 5.73768L3.23 5.37768C1.21 7.77768 0 10.8877 0 14.2677C0 18.6877 3.58 22.2677 8 22.2677C12.42 22.2677 16 18.6877 16 14.2677C16 8.87768 13.41 4.06768 9.5 0.937683ZM7.71 19.2677C5.93 19.2677 4.49 17.8677 4.49 16.1277C4.49 14.5077 5.54 13.3677 7.3 13.0077C9.07 12.6477 10.9 11.7977 11.92 10.4277C12.31 11.7177 12.51 13.0777 12.51 14.4677C12.51 17.1177 10.36 19.2677 7.71 19.2677Z" fill="#3323EE"/>
</svg>
