<svg width="16" height="22" viewBox="0 0 16 22" fill="none" xmlns="http://www.w3.org/2000/svg">
<path d="M9.5 0.669998C9.5 0.669998 10.24 3.32 10.24 5.47C10.24 7.53 8.89 9.2 6.83 9.2C4.76 9.2 3.2 7.53 3.2 5.47L3.23 5.11C1.21 7.51 0 10.62 0 14C0 18.42 3.58 22 8 22C12.42 22 16 18.42 16 14C16 8.61 13.41 3.8 9.5 0.669998ZM7.71 19C5.93 19 4.49 17.6 4.49 15.86C4.49 14.24 5.54 13.1 7.3 12.74C9.07 12.38 10.9 11.53 11.92 10.16C12.31 11.45 12.51 12.81 12.51 14.2C12.51 16.85 10.36 19 7.71 19Z" fill="#EE2323"/>
</svg>
