<svg width="17" height="22" viewBox="0 0 17 22" fill="none" xmlns="http://www.w3.org/2000/svg">
<path d="M9.56598 0.65509C9.56598 0.65509 10.306 3.30509 10.306 5.45509C10.306 7.51509 8.95598 9.18509 6.89598 9.18509C4.82598 9.18509 3.26598 7.51509 3.26598 5.45509L3.29598 5.09509C1.27598 7.49509 0.065979 10.6051 0.065979 13.9851C0.065979 18.4051 3.64598 21.9851 8.06598 21.9851C12.486 21.9851 16.066 18.4051 16.066 13.9851C16.066 8.59509 13.476 3.78509 9.56598 0.65509ZM7.77598 18.9851C5.99598 18.9851 4.55598 17.5851 4.55598 15.8451C4.55598 14.2251 5.60598 13.0851 7.36598 12.7251C9.13598 12.3651 10.966 11.5151 11.986 10.1451C12.376 11.4351 12.576 12.7951 12.576 14.1851C12.576 16.8351 10.426 18.9851 7.77598 18.9851Z" fill="black"/>
</svg>
