<svg width="16" height="22" viewBox="0 0 16 22" fill="none" xmlns="http://www.w3.org/2000/svg">
<path d="M9.5 0.65509C9.5 0.65509 10.24 3.30509 10.24 5.45509C10.24 7.51509 8.89 9.18509 6.83 9.18509C4.76 9.18509 3.2 7.51509 3.2 5.45509L3.23 5.09509C1.21 7.49509 0 10.6051 0 13.9851C0 18.4051 3.58 21.9851 8 21.9851C12.42 21.9851 16 18.4051 16 13.9851C16 8.59509 13.41 3.78509 9.5 0.65509ZM7.71 18.9851C5.93 18.9851 4.49 17.5851 4.49 15.8451C4.49 14.2251 5.54 13.0851 7.3 12.7251C9.07 12.3651 10.9 11.5151 11.92 10.1451C12.31 11.4351 12.51 12.7951 12.51 14.1851C12.51 16.8351 10.36 18.9851 7.71 18.9851Z" fill="#ADABAB"/>
</svg>
